<mxfile host="app.diagrams.net" agent="Mozilla/5.0 (Windows NT 10.0; Win64; x64) AppleWebKit/537.36 (KHTML, like Gecko) Chrome/129.0.0.0 Safari/537.36" version="24.7.16">
  <diagram name="Сторінка-1" id="Lnzr-KjTzazu8caVHAOX">
    <mxGraphModel dx="2100" dy="1044" grid="1" gridSize="10" guides="1" tooltips="1" connect="1" arrows="1" fold="1" page="1" pageScale="1" pageWidth="827" pageHeight="1169" math="0" shadow="0">
      <root>
        <mxCell id="0" />
        <mxCell id="1" parent="0" />
        <mxCell id="pRvwT8RHhjKKip5ss5oR-3" value="" style="edgeStyle=orthogonalEdgeStyle;rounded=0;orthogonalLoop=1;jettySize=auto;html=1;endArrow=none;endFill=0;" edge="1" parent="1" source="pRvwT8RHhjKKip5ss5oR-1" target="pRvwT8RHhjKKip5ss5oR-2">
          <mxGeometry relative="1" as="geometry" />
        </mxCell>
        <mxCell id="pRvwT8RHhjKKip5ss5oR-1" value="Початок" style="rounded=1;whiteSpace=wrap;html=1;" vertex="1" parent="1">
          <mxGeometry x="330" y="30" width="110" height="50" as="geometry" />
        </mxCell>
        <mxCell id="pRvwT8RHhjKKip5ss5oR-5" value="" style="edgeStyle=orthogonalEdgeStyle;rounded=0;orthogonalLoop=1;jettySize=auto;html=1;entryX=0.5;entryY=0;entryDx=0;entryDy=0;endArrow=none;endFill=0;" edge="1" parent="1" source="pRvwT8RHhjKKip5ss5oR-2" target="pRvwT8RHhjKKip5ss5oR-6">
          <mxGeometry relative="1" as="geometry">
            <mxPoint x="385.0526315789475" y="200" as="targetPoint" />
          </mxGeometry>
        </mxCell>
        <mxCell id="pRvwT8RHhjKKip5ss5oR-2" value="x, y, R" style="shape=parallelogram;perimeter=parallelogramPerimeter;whiteSpace=wrap;html=1;fixedSize=1;" vertex="1" parent="1">
          <mxGeometry x="325" y="120" width="120" height="60" as="geometry" />
        </mxCell>
        <mxCell id="pRvwT8RHhjKKip5ss5oR-53" style="edgeStyle=orthogonalEdgeStyle;rounded=0;orthogonalLoop=1;jettySize=auto;html=1;" edge="1" parent="1" source="pRvwT8RHhjKKip5ss5oR-6">
          <mxGeometry relative="1" as="geometry">
            <mxPoint x="385" y="100" as="targetPoint" />
            <Array as="points">
              <mxPoint x="460" y="230" />
              <mxPoint x="460" y="100" />
              <mxPoint x="385" y="100" />
            </Array>
          </mxGeometry>
        </mxCell>
        <mxCell id="pRvwT8RHhjKKip5ss5oR-55" style="edgeStyle=orthogonalEdgeStyle;shape=connector;rounded=0;orthogonalLoop=1;jettySize=auto;html=1;entryX=0.5;entryY=0;entryDx=0;entryDy=0;strokeColor=default;align=center;verticalAlign=middle;fontFamily=Helvetica;fontSize=11;fontColor=default;labelBackgroundColor=default;endArrow=none;endFill=0;" edge="1" parent="1" source="pRvwT8RHhjKKip5ss5oR-6" target="pRvwT8RHhjKKip5ss5oR-52">
          <mxGeometry relative="1" as="geometry" />
        </mxCell>
        <mxCell id="pRvwT8RHhjKKip5ss5oR-6" value="i &amp;lt; 10" style="whiteSpace=wrap;html=1;" vertex="1" parent="1">
          <mxGeometry x="347.5" y="210" width="75" height="40" as="geometry" />
        </mxCell>
        <mxCell id="pRvwT8RHhjKKip5ss5oR-13" style="edgeStyle=orthogonalEdgeStyle;rounded=0;orthogonalLoop=1;jettySize=auto;html=1;entryX=0.5;entryY=0;entryDx=0;entryDy=0;endArrow=none;endFill=0;" edge="1" parent="1" source="pRvwT8RHhjKKip5ss5oR-10">
          <mxGeometry relative="1" as="geometry">
            <mxPoint x="652.5100000000002" y="560" as="targetPoint" />
            <Array as="points">
              <mxPoint x="652.51" y="495" />
            </Array>
          </mxGeometry>
        </mxCell>
        <mxCell id="pRvwT8RHhjKKip5ss5oR-16" style="edgeStyle=orthogonalEdgeStyle;rounded=0;orthogonalLoop=1;jettySize=auto;html=1;entryX=0.5;entryY=0;entryDx=0;entryDy=0;endArrow=none;endFill=0;" edge="1" parent="1" source="pRvwT8RHhjKKip5ss5oR-10">
          <mxGeometry relative="1" as="geometry">
            <mxPoint x="232.51000000000022" y="560" as="targetPoint" />
            <Array as="points">
              <mxPoint x="232.51" y="495" />
            </Array>
          </mxGeometry>
        </mxCell>
        <mxCell id="pRvwT8RHhjKKip5ss5oR-10" value="&lt;p style=&quot;margin-bottom:0cm;line-height:normal;mso-layout-grid-align:&lt;br/&gt;none;text-autospace:none&quot; class=&quot;MsoNormal&quot;&gt;&lt;span style=&quot;font-size: 9.5pt; font-family: &amp;quot;Cascadia Mono&amp;quot;; background: white;&quot;&gt;((x&lt;sup&gt;2&lt;/sup&gt; + y&lt;sup&gt;2&lt;/sup&gt; &amp;lt;= R&lt;sup&gt;2&lt;/sup&gt;) &amp;amp;&amp;amp; x &amp;gt;= 0 &amp;amp;&amp;amp; y &amp;gt;= 0)&lt;/span&gt;&lt;span style=&quot;background-color: white; font-family: &amp;quot;Cascadia Mono&amp;quot;; font-size: 9.5pt;&quot;&gt;||&amp;nbsp; (y &amp;lt;= 0 &amp;amp;&amp;amp; (x&lt;sup&gt;2&lt;/sup&gt; + y&lt;sup&gt;2&lt;/sup&gt; &amp;lt;= R&lt;sup&gt;2&lt;/sup&gt;))&lt;/span&gt;&lt;/p&gt;" style="rhombus;whiteSpace=wrap;html=1;" vertex="1" parent="1">
          <mxGeometry x="282.51" y="430" width="310" height="130" as="geometry" />
        </mxCell>
        <mxCell id="pRvwT8RHhjKKip5ss5oR-12" value="yes" style="shape=document;whiteSpace=wrap;html=1;boundedLbl=1;fontSize=18;" vertex="1" parent="1">
          <mxGeometry x="592.51" y="560" width="120" height="60" as="geometry" />
        </mxCell>
        <mxCell id="pRvwT8RHhjKKip5ss5oR-14" value="+" style="text;html=1;align=center;verticalAlign=middle;resizable=0;points=[];autosize=1;strokeColor=none;fillColor=none;fontSize=18;" vertex="1" parent="1">
          <mxGeometry x="622.51" y="463" width="30" height="40" as="geometry" />
        </mxCell>
        <mxCell id="pRvwT8RHhjKKip5ss5oR-70" style="edgeStyle=orthogonalEdgeStyle;shape=connector;rounded=0;orthogonalLoop=1;jettySize=auto;html=1;strokeColor=default;align=center;verticalAlign=middle;fontFamily=Helvetica;fontSize=11;fontColor=default;labelBackgroundColor=default;endArrow=none;endFill=0;" edge="1" parent="1" source="pRvwT8RHhjKKip5ss5oR-15">
          <mxGeometry relative="1" as="geometry">
            <mxPoint x="440" y="700" as="targetPoint" />
            <Array as="points">
              <mxPoint x="230" y="670" />
              <mxPoint x="440" y="670" />
            </Array>
          </mxGeometry>
        </mxCell>
        <mxCell id="pRvwT8RHhjKKip5ss5oR-15" value="no" style="shape=document;whiteSpace=wrap;html=1;boundedLbl=1;fontSize=18;" vertex="1" parent="1">
          <mxGeometry x="170" y="560" width="120" height="60" as="geometry" />
        </mxCell>
        <mxCell id="pRvwT8RHhjKKip5ss5oR-17" value="-" style="text;html=1;align=center;verticalAlign=middle;resizable=0;points=[];autosize=1;strokeColor=none;fillColor=none;fontSize=18;" vertex="1" parent="1">
          <mxGeometry x="237.51" y="463" width="30" height="40" as="geometry" />
        </mxCell>
        <mxCell id="pRvwT8RHhjKKip5ss5oR-58" value="" style="edgeStyle=orthogonalEdgeStyle;shape=connector;rounded=0;orthogonalLoop=1;jettySize=auto;html=1;strokeColor=default;align=center;verticalAlign=middle;fontFamily=Helvetica;fontSize=11;fontColor=default;labelBackgroundColor=default;endArrow=none;endFill=0;" edge="1" parent="1" source="pRvwT8RHhjKKip5ss5oR-52" target="pRvwT8RHhjKKip5ss5oR-57">
          <mxGeometry relative="1" as="geometry" />
        </mxCell>
        <mxCell id="pRvwT8RHhjKKip5ss5oR-52" value="i = 0" style="whiteSpace=wrap;html=1;" vertex="1" parent="1">
          <mxGeometry x="199.99" y="260" width="75" height="40" as="geometry" />
        </mxCell>
        <mxCell id="pRvwT8RHhjKKip5ss5oR-54" value="+" style="text;html=1;align=center;verticalAlign=middle;resizable=0;points=[];autosize=1;strokeColor=none;fillColor=none;fontSize=18;" vertex="1" parent="1">
          <mxGeometry x="422.5" y="200" width="30" height="40" as="geometry" />
        </mxCell>
        <mxCell id="pRvwT8RHhjKKip5ss5oR-56" value="-" style="text;html=1;align=center;verticalAlign=middle;resizable=0;points=[];autosize=1;strokeColor=none;fillColor=none;fontSize=18;" vertex="1" parent="1">
          <mxGeometry x="260" y="200" width="30" height="40" as="geometry" />
        </mxCell>
        <mxCell id="pRvwT8RHhjKKip5ss5oR-60" value="" style="edgeStyle=orthogonalEdgeStyle;shape=connector;rounded=0;orthogonalLoop=1;jettySize=auto;html=1;strokeColor=default;align=center;verticalAlign=middle;fontFamily=Helvetica;fontSize=11;fontColor=default;labelBackgroundColor=default;endArrow=none;endFill=0;" edge="1" parent="1" source="pRvwT8RHhjKKip5ss5oR-57" target="pRvwT8RHhjKKip5ss5oR-59">
          <mxGeometry relative="1" as="geometry" />
        </mxCell>
        <mxCell id="pRvwT8RHhjKKip5ss5oR-72" style="edgeStyle=orthogonalEdgeStyle;shape=connector;rounded=0;orthogonalLoop=1;jettySize=auto;html=1;entryX=0.5;entryY=0;entryDx=0;entryDy=0;strokeColor=default;align=center;verticalAlign=middle;fontFamily=Helvetica;fontSize=11;fontColor=default;labelBackgroundColor=default;endArrow=none;endFill=0;" edge="1" parent="1" source="pRvwT8RHhjKKip5ss5oR-57" target="pRvwT8RHhjKKip5ss5oR-71">
          <mxGeometry relative="1" as="geometry">
            <Array as="points">
              <mxPoint x="140" y="383" />
              <mxPoint x="140" y="720" />
              <mxPoint x="200" y="720" />
            </Array>
          </mxGeometry>
        </mxCell>
        <mxCell id="pRvwT8RHhjKKip5ss5oR-57" value="&lt;span style=&quot;font-size: 12px; background-color: rgb(251, 251, 251);&quot;&gt;i &amp;lt; 10&lt;/span&gt;" style="rhombus;whiteSpace=wrap;html=1;fontFamily=Helvetica;fontSize=11;fontColor=default;labelBackgroundColor=default;" vertex="1" parent="1">
          <mxGeometry x="185.62" y="347.5" width="103.75" height="70" as="geometry" />
        </mxCell>
        <mxCell id="pRvwT8RHhjKKip5ss5oR-65" value="" style="edgeStyle=orthogonalEdgeStyle;shape=connector;rounded=0;orthogonalLoop=1;jettySize=auto;html=1;strokeColor=default;align=center;verticalAlign=middle;fontFamily=Helvetica;fontSize=11;fontColor=default;labelBackgroundColor=default;endArrow=none;endFill=0;" edge="1" parent="1" source="pRvwT8RHhjKKip5ss5oR-59" target="pRvwT8RHhjKKip5ss5oR-10">
          <mxGeometry relative="1" as="geometry" />
        </mxCell>
        <mxCell id="pRvwT8RHhjKKip5ss5oR-59" value="x, y, R" style="shape=document;whiteSpace=wrap;html=1;boundedLbl=1;fontFamily=Helvetica;fontSize=11;fontColor=default;labelBackgroundColor=default;" vertex="1" parent="1">
          <mxGeometry x="387.49" y="355" width="100.01" height="55" as="geometry" />
        </mxCell>
        <mxCell id="pRvwT8RHhjKKip5ss5oR-61" value="+" style="text;html=1;align=center;verticalAlign=middle;resizable=0;points=[];autosize=1;strokeColor=none;fillColor=none;fontSize=18;" vertex="1" parent="1">
          <mxGeometry x="307.51" y="347.5" width="30" height="40" as="geometry" />
        </mxCell>
        <mxCell id="pRvwT8RHhjKKip5ss5oR-66" value="" style="endArrow=none;html=1;rounded=0;strokeColor=default;align=center;verticalAlign=middle;fontFamily=Helvetica;fontSize=11;fontColor=default;labelBackgroundColor=default;edgeStyle=orthogonalEdgeStyle;exitX=0.5;exitY=0;exitDx=0;exitDy=0;" edge="1" parent="1" source="pRvwT8RHhjKKip5ss5oR-69" target="pRvwT8RHhjKKip5ss5oR-12">
          <mxGeometry width="50" height="50" relative="1" as="geometry">
            <mxPoint x="226.62999999999977" y="646.4000000000001" as="sourcePoint" />
            <mxPoint x="648.4" y="640" as="targetPoint" />
            <Array as="points">
              <mxPoint x="440" y="700" />
              <mxPoint x="440" y="670" />
              <mxPoint x="653" y="670" />
            </Array>
          </mxGeometry>
        </mxCell>
        <mxCell id="pRvwT8RHhjKKip5ss5oR-67" value="" style="endArrow=classic;html=1;rounded=0;strokeColor=default;align=center;verticalAlign=middle;fontFamily=Helvetica;fontSize=11;fontColor=default;labelBackgroundColor=default;edgeStyle=orthogonalEdgeStyle;endFill=1;exitX=0.5;exitY=1;exitDx=0;exitDy=0;" edge="1" parent="1" source="pRvwT8RHhjKKip5ss5oR-69">
          <mxGeometry width="50" height="50" relative="1" as="geometry">
            <mxPoint x="500" y="760" as="sourcePoint" />
            <mxPoint x="240" y="330" as="targetPoint" />
            <Array as="points">
              <mxPoint x="437" y="760" />
              <mxPoint x="730" y="760" />
              <mxPoint x="730" y="330" />
            </Array>
          </mxGeometry>
        </mxCell>
        <mxCell id="pRvwT8RHhjKKip5ss5oR-69" value="i++" style="whiteSpace=wrap;html=1;" vertex="1" parent="1">
          <mxGeometry x="400.01" y="700" width="75" height="40" as="geometry" />
        </mxCell>
        <mxCell id="pRvwT8RHhjKKip5ss5oR-74" value="" style="edgeStyle=orthogonalEdgeStyle;shape=connector;rounded=0;orthogonalLoop=1;jettySize=auto;html=1;strokeColor=default;align=center;verticalAlign=middle;fontFamily=Helvetica;fontSize=11;fontColor=default;labelBackgroundColor=default;endArrow=none;endFill=0;" edge="1" parent="1" source="pRvwT8RHhjKKip5ss5oR-71" target="pRvwT8RHhjKKip5ss5oR-73">
          <mxGeometry relative="1" as="geometry" />
        </mxCell>
        <mxCell id="pRvwT8RHhjKKip5ss5oR-71" value="i = 0" style="whiteSpace=wrap;html=1;" vertex="1" parent="1">
          <mxGeometry x="162.51000000000002" y="750" width="75" height="40" as="geometry" />
        </mxCell>
        <mxCell id="pRvwT8RHhjKKip5ss5oR-76" value="" style="edgeStyle=orthogonalEdgeStyle;shape=connector;rounded=0;orthogonalLoop=1;jettySize=auto;html=1;strokeColor=default;align=center;verticalAlign=middle;fontFamily=Helvetica;fontSize=11;fontColor=default;labelBackgroundColor=default;endArrow=none;endFill=0;" edge="1" parent="1" source="pRvwT8RHhjKKip5ss5oR-73" target="pRvwT8RHhjKKip5ss5oR-75">
          <mxGeometry relative="1" as="geometry" />
        </mxCell>
        <mxCell id="pRvwT8RHhjKKip5ss5oR-100" style="edgeStyle=orthogonalEdgeStyle;shape=connector;rounded=0;orthogonalLoop=1;jettySize=auto;html=1;entryX=0.5;entryY=0;entryDx=0;entryDy=0;strokeColor=default;align=center;verticalAlign=middle;fontFamily=Helvetica;fontSize=11;fontColor=default;labelBackgroundColor=default;endArrow=none;endFill=0;" edge="1" parent="1" source="pRvwT8RHhjKKip5ss5oR-73" target="pRvwT8RHhjKKip5ss5oR-99">
          <mxGeometry relative="1" as="geometry" />
        </mxCell>
        <mxCell id="pRvwT8RHhjKKip5ss5oR-73" value="&lt;span style=&quot;font-size: 12px; background-color: rgb(251, 251, 251);&quot;&gt;i &amp;lt; 10&lt;/span&gt;" style="rhombus;whiteSpace=wrap;html=1;fontFamily=Helvetica;fontSize=11;fontColor=default;labelBackgroundColor=default;" vertex="1" parent="1">
          <mxGeometry x="148.14000000000001" y="820" width="103.75" height="70" as="geometry" />
        </mxCell>
        <mxCell id="pRvwT8RHhjKKip5ss5oR-78" value="" style="edgeStyle=orthogonalEdgeStyle;shape=connector;rounded=0;orthogonalLoop=1;jettySize=auto;html=1;strokeColor=default;align=center;verticalAlign=middle;fontFamily=Helvetica;fontSize=11;fontColor=default;labelBackgroundColor=default;endArrow=none;endFill=0;" edge="1" parent="1" source="pRvwT8RHhjKKip5ss5oR-75" target="pRvwT8RHhjKKip5ss5oR-77">
          <mxGeometry relative="1" as="geometry" />
        </mxCell>
        <mxCell id="pRvwT8RHhjKKip5ss5oR-75" value="&lt;span style=&quot;font-size: 9.5pt; line-height: 106%; font-family: &amp;quot;Cascadia Mono&amp;quot;; background: white;&quot;&gt;x = 6. * rand() / &lt;/span&gt;&lt;span style=&quot;font-size:9.5pt;line-height:106%;&lt;br/&gt;font-family:&amp;quot;Cascadia Mono&amp;quot;;mso-fareast-font-family:Aptos;mso-fareast-theme-font:&lt;br/&gt;minor-latin;color:#6F008A;background:white;mso-highlight:white;mso-font-kerning:&lt;br/&gt;0pt;mso-ansi-language:UK;mso-fareast-language:EN-US;mso-bidi-language:AR-SA&quot;&gt;RAND_MAX&lt;/span&gt;&lt;span style=&quot;font-size: 9.5pt; line-height: 106%; font-family: &amp;quot;Cascadia Mono&amp;quot;; background: white;&quot;&gt; - R&lt;/span&gt;" style="whiteSpace=wrap;html=1;" vertex="1" parent="1">
          <mxGeometry x="354" y="807.5" width="160" height="95" as="geometry" />
        </mxCell>
        <mxCell id="pRvwT8RHhjKKip5ss5oR-91" style="edgeStyle=orthogonalEdgeStyle;shape=connector;rounded=0;orthogonalLoop=1;jettySize=auto;html=1;entryX=0.5;entryY=0;entryDx=0;entryDy=0;strokeColor=default;align=center;verticalAlign=middle;fontFamily=Helvetica;fontSize=11;fontColor=default;labelBackgroundColor=default;endArrow=none;endFill=0;" edge="1" parent="1" source="pRvwT8RHhjKKip5ss5oR-77" target="pRvwT8RHhjKKip5ss5oR-82">
          <mxGeometry relative="1" as="geometry">
            <Array as="points">
              <mxPoint x="750" y="855" />
              <mxPoint x="750" y="921" />
              <mxPoint x="540" y="921" />
            </Array>
          </mxGeometry>
        </mxCell>
        <mxCell id="pRvwT8RHhjKKip5ss5oR-77" value="&lt;span style=&quot;font-size: 9.5pt; line-height: 106%; font-family: &amp;quot;Cascadia Mono&amp;quot;; background: white;&quot;&gt;y = 6. * rand() / &lt;/span&gt;&lt;span style=&quot;font-size:9.5pt;line-height:106%;&lt;br/&gt;font-family:&amp;quot;Cascadia Mono&amp;quot;;mso-fareast-font-family:Aptos;mso-fareast-theme-font:&lt;br/&gt;minor-latin;color:#6F008A;background:white;mso-highlight:white;mso-font-kerning:&lt;br/&gt;0pt;mso-ansi-language:UK;mso-fareast-language:EN-US;mso-bidi-language:AR-SA&quot;&gt;RAND_MAX&lt;/span&gt;&lt;span style=&quot;font-size: 9.5pt; line-height: 106%; font-family: &amp;quot;Cascadia Mono&amp;quot;; background: white;&quot;&gt; - R&lt;/span&gt;" style="whiteSpace=wrap;html=1;" vertex="1" parent="1">
          <mxGeometry x="560" y="808.75" width="167.49" height="92.5" as="geometry" />
        </mxCell>
        <mxCell id="pRvwT8RHhjKKip5ss5oR-79" value="+" style="text;html=1;align=center;verticalAlign=middle;resizable=0;points=[];autosize=1;strokeColor=none;fillColor=none;fontSize=18;" vertex="1" parent="1">
          <mxGeometry x="277.51" y="820" width="30" height="40" as="geometry" />
        </mxCell>
        <mxCell id="pRvwT8RHhjKKip5ss5oR-80" style="edgeStyle=orthogonalEdgeStyle;rounded=0;orthogonalLoop=1;jettySize=auto;html=1;entryX=0.5;entryY=0;entryDx=0;entryDy=0;" edge="1" source="pRvwT8RHhjKKip5ss5oR-82" target="pRvwT8RHhjKKip5ss5oR-88" parent="1">
          <mxGeometry relative="1" as="geometry">
            <mxPoint x="335" y="1050" as="targetPoint" />
            <Array as="points">
              <mxPoint x="335" y="1005" />
            </Array>
          </mxGeometry>
        </mxCell>
        <mxCell id="pRvwT8RHhjKKip5ss5oR-81" style="edgeStyle=orthogonalEdgeStyle;rounded=0;orthogonalLoop=1;jettySize=auto;html=1;entryX=0.5;entryY=0;entryDx=0;entryDy=0;" edge="1" source="pRvwT8RHhjKKip5ss5oR-82" target="pRvwT8RHhjKKip5ss5oR-90" parent="1">
          <mxGeometry relative="1" as="geometry">
            <mxPoint x="755" y="1050" as="targetPoint" />
            <Array as="points">
              <mxPoint x="755" y="1005" />
            </Array>
          </mxGeometry>
        </mxCell>
        <mxCell id="pRvwT8RHhjKKip5ss5oR-82" value="&lt;p style=&quot;margin-bottom:0cm;line-height:normal;mso-layout-grid-align:&lt;br/&gt;none;text-autospace:none&quot; class=&quot;MsoNormal&quot;&gt;&lt;span style=&quot;font-size: 9.5pt; font-family: &amp;quot;Cascadia Mono&amp;quot;; background: white;&quot;&gt;((x&lt;sup&gt;2&lt;/sup&gt; + y&lt;sup&gt;2&lt;/sup&gt; &amp;lt;= R&lt;sup&gt;2&lt;/sup&gt;) &amp;amp;&amp;amp; x &amp;gt;= 0 &amp;amp;&amp;amp; y &amp;gt;= 0)&lt;/span&gt;&lt;span style=&quot;background-color: white; font-family: &amp;quot;Cascadia Mono&amp;quot;; font-size: 9.5pt;&quot;&gt;||&amp;nbsp; (y &amp;lt;= 0 &amp;amp;&amp;amp; (x&lt;sup&gt;2&lt;/sup&gt; + y&lt;sup&gt;2&lt;/sup&gt; &amp;lt;= R&lt;sup&gt;2&lt;/sup&gt;))&lt;/span&gt;&lt;/p&gt;" style="rhombus;whiteSpace=wrap;html=1;" vertex="1" parent="1">
          <mxGeometry x="384.99" y="940" width="310" height="130" as="geometry" />
        </mxCell>
        <mxCell id="pRvwT8RHhjKKip5ss5oR-93" style="edgeStyle=orthogonalEdgeStyle;shape=connector;rounded=0;orthogonalLoop=1;jettySize=auto;html=1;entryX=0.5;entryY=0;entryDx=0;entryDy=0;strokeColor=default;align=center;verticalAlign=middle;fontFamily=Helvetica;fontSize=11;fontColor=default;labelBackgroundColor=default;endArrow=none;endFill=0;" edge="1" parent="1" source="pRvwT8RHhjKKip5ss5oR-83" target="pRvwT8RHhjKKip5ss5oR-92">
          <mxGeometry relative="1" as="geometry">
            <Array as="points">
              <mxPoint x="335" y="1240" />
              <mxPoint x="540" y="1240" />
            </Array>
          </mxGeometry>
        </mxCell>
        <mxCell id="pRvwT8RHhjKKip5ss5oR-83" value="no" style="shape=document;whiteSpace=wrap;html=1;boundedLbl=1;fontSize=18;" vertex="1" parent="1">
          <mxGeometry x="274.99" y="1140" width="120" height="60" as="geometry" />
        </mxCell>
        <mxCell id="pRvwT8RHhjKKip5ss5oR-94" style="edgeStyle=orthogonalEdgeStyle;shape=connector;rounded=0;orthogonalLoop=1;jettySize=auto;html=1;entryX=0.5;entryY=0;entryDx=0;entryDy=0;strokeColor=default;align=center;verticalAlign=middle;fontFamily=Helvetica;fontSize=11;fontColor=default;labelBackgroundColor=default;endArrow=none;endFill=0;" edge="1" parent="1" source="pRvwT8RHhjKKip5ss5oR-84" target="pRvwT8RHhjKKip5ss5oR-92">
          <mxGeometry relative="1" as="geometry">
            <Array as="points">
              <mxPoint x="755" y="1240" />
              <mxPoint x="540" y="1240" />
            </Array>
          </mxGeometry>
        </mxCell>
        <mxCell id="pRvwT8RHhjKKip5ss5oR-84" value="yes" style="shape=document;whiteSpace=wrap;html=1;boundedLbl=1;fontSize=18;" vertex="1" parent="1">
          <mxGeometry x="694.99" y="1140" width="120" height="60" as="geometry" />
        </mxCell>
        <mxCell id="pRvwT8RHhjKKip5ss5oR-85" value="-" style="text;html=1;align=center;verticalAlign=bottom;resizable=0;points=[];autosize=1;strokeColor=none;fillColor=none;fontSize=18;" vertex="1" parent="1">
          <mxGeometry x="335" y="960" width="30" height="40" as="geometry" />
        </mxCell>
        <mxCell id="pRvwT8RHhjKKip5ss5oR-86" value="+" style="text;html=1;align=center;verticalAlign=middle;resizable=0;points=[];autosize=1;strokeColor=none;fillColor=none;fontSize=18;" vertex="1" parent="1">
          <mxGeometry x="725" y="975" width="30" height="40" as="geometry" />
        </mxCell>
        <mxCell id="pRvwT8RHhjKKip5ss5oR-87" value="" style="edgeStyle=orthogonalEdgeStyle;rounded=0;orthogonalLoop=1;jettySize=auto;html=1;" edge="1" source="pRvwT8RHhjKKip5ss5oR-88" target="pRvwT8RHhjKKip5ss5oR-83" parent="1">
          <mxGeometry relative="1" as="geometry" />
        </mxCell>
        <mxCell id="pRvwT8RHhjKKip5ss5oR-88" value="x, y" style="shape=document;whiteSpace=wrap;html=1;boundedLbl=1;" vertex="1" parent="1">
          <mxGeometry x="284.99" y="1050" width="100" height="60" as="geometry" />
        </mxCell>
        <mxCell id="pRvwT8RHhjKKip5ss5oR-89" value="" style="edgeStyle=orthogonalEdgeStyle;rounded=0;orthogonalLoop=1;jettySize=auto;html=1;" edge="1" source="pRvwT8RHhjKKip5ss5oR-90" target="pRvwT8RHhjKKip5ss5oR-84" parent="1">
          <mxGeometry relative="1" as="geometry" />
        </mxCell>
        <mxCell id="pRvwT8RHhjKKip5ss5oR-90" value="x, y" style="shape=document;whiteSpace=wrap;html=1;boundedLbl=1;" vertex="1" parent="1">
          <mxGeometry x="704.99" y="1050" width="100" height="60" as="geometry" />
        </mxCell>
        <mxCell id="pRvwT8RHhjKKip5ss5oR-95" style="edgeStyle=orthogonalEdgeStyle;shape=connector;rounded=0;orthogonalLoop=1;jettySize=auto;html=1;strokeColor=default;align=center;verticalAlign=middle;fontFamily=Helvetica;fontSize=11;fontColor=default;labelBackgroundColor=default;endArrow=classic;endFill=1;" edge="1" parent="1" source="pRvwT8RHhjKKip5ss5oR-92">
          <mxGeometry relative="1" as="geometry">
            <mxPoint x="200" y="810" as="targetPoint" />
            <Array as="points">
              <mxPoint x="540" y="1340" />
              <mxPoint x="70" y="1340" />
              <mxPoint x="70" y="810" />
            </Array>
          </mxGeometry>
        </mxCell>
        <mxCell id="pRvwT8RHhjKKip5ss5oR-92" value="i++" style="whiteSpace=wrap;html=1;" vertex="1" parent="1">
          <mxGeometry x="502.49" y="1260" width="75" height="40" as="geometry" />
        </mxCell>
        <mxCell id="pRvwT8RHhjKKip5ss5oR-99" value="Кінець" style="rounded=1;whiteSpace=wrap;html=1;fontFamily=Helvetica;fontSize=16;fontColor=default;labelBackgroundColor=default;" vertex="1" parent="1">
          <mxGeometry x="140.02" y="1210" width="120" height="60" as="geometry" />
        </mxCell>
      </root>
    </mxGraphModel>
  </diagram>
</mxfile>
